<?xml version="1.0" encoding="iso-8859-1"?>
<!-- Generator: Adobe Illustrator 16.0.0, SVG Export Plug-In . SVG Version: 6.00 Build 0)  -->
<!DOCTYPE svg PUBLIC "-//W3C//DTD SVG 1.1//EN" "http://www.w3.org/Graphics/SVG/1.1/DTD/svg11.dtd">
<svg version="1.1" id="Capa_1" xmlns="http://www.w3.org/2000/svg" xmlns:xlink="http://www.w3.org/1999/xlink" x="0px" y="0px"
	 width="27.174px" height="27.572px" viewBox="0 0 27.174 27.572" style="enable-background:new 0 0 27.174 27.572;"
	 xml:space="preserve">
<path style="fill:#000000;" d="M9.143,8.469c0,0.833,0.054,1.457,0.163,1.873c0.108,0.416,0.289,0.771,0.542,1.063
	c0.254,0.293,0.694,0.428,1.152,0.573c0.457,0.145,1.394,0.217,2.055,0.217c0.59,0,0.86-0.084,1.316-0.254
	c0.455-0.17,0.828-0.349,1.118-0.706c0.29-0.356,0.48-0.741,0.569-1.152c0.088-0.411,0.133-1.058,0.133-1.938V5.66
	c0-0.694-0.049-1.211-0.145-1.55c-0.096-0.34-0.273-0.669-0.535-0.99c-0.261-0.32-0.631-0.58-1.111-0.779
	c-0.48-0.2-0.803-0.299-1.473-0.299c-0.797,0-1.914,0.154-2.426,0.465C9.99,2.817,9.635,3.229,9.438,3.74
	C9.241,4.252,9.143,4.963,9.143,5.875V8.469z M12.084,5.048c0-0.503,0.029-0.818,0.09-0.949c0.059-0.131,0.303-0.196,0.479-0.196
	s0.419,0.065,0.474,0.196c0.053,0.131,0.08,0.446,0.08,0.949v4.099c0,0.423-0.027,0.699-0.084,0.827s-0.426,0.192-0.604,0.192
	c-0.172,0-0.287-0.07-0.346-0.211c-0.061-0.14-0.09-0.441-0.09-0.904V5.048z"/>
<path style="fill:#000000;" d="M4.104,12.103h2.943V7.775L9.25,0.063L6.395,0C5.99,2.243,5.701,3.877,5.529,5.152
	C5.472,4.345,5.221,2.333,4.774,0H1.918l2.186,7.775V12.103z"/>
<path style="fill:#000000;" d="M17.568,11.416c0.141,0.261,0.358,0.387,0.654,0.543c0.295,0.158,0.793,0.11,1.24,0.11
	c0.395,0,0.742,0.044,1.045-0.122c0.303-0.165,0.559-0.33,0.765-0.66l-0.052,0.73h3.035V2.03H21.23v6.867
	c0,0.802-0.021,1.278-0.062,1.425c-0.043,0.147-0.3,0.222-0.521,0.222c-0.207,0-0.375-0.071-0.422-0.215
	c-0.047-0.142-0.07-0.595-0.07-1.358V2.03h-2.898v6.882c0,0.841,0.017,1.404,0.051,1.688C17.341,10.883,17.429,11.155,17.568,11.416
	z"/>
<path style="fill:#000000;" d="M24.934,14H2.242C1.002,14,0,15.064,0,16.379v8.813c0,1.312,1.002,2.379,2.242,2.379h22.691
	c1.234,0,2.24-1.066,2.24-2.379v-8.813C27.174,15.064,26.168,14,24.934,14z M6.665,18.562H5.752v7.076H3.64v-7.076H2.607v-1.986
	h4.058V18.562z M12.759,25.637h-2.226l0.037-0.597c-0.15,0.243-0.337,0.424-0.559,0.545c-0.223,0.121-0.479,0.182-0.767,0.182
	c-0.329,0-0.686-0.058-0.902-0.173s-0.376-0.269-0.479-0.46c-0.103-0.191-0.167-0.391-0.192-0.599s-0.038-0.62-0.038-1.237v-4.721
	h2.083v4.764c0,0.559,0.017,0.891,0.051,0.996c0.034,0.104,0.316,0.157,0.468,0.157c0.163,0,0.386-0.054,0.416-0.162
	c0.03-0.108,0.046-0.457,0.046-1.045v-4.731h2.062V25.637z M18.775,23.634c0,0.527,0.007,0.919-0.064,1.177
	c-0.069,0.258-0.235,0.482-0.496,0.672c-0.258,0.189-0.484,0.284-0.841,0.284c-0.257,0-0.495-0.057-0.718-0.169
	c-0.221-0.112-0.677-0.28-0.861-0.504l-0.141,0.543H13.67v-9.062h2.125v2.622c0.18-0.209,0.635-0.366,0.856-0.469
	c0.222-0.103,0.462-0.155,0.723-0.155c0.3,0,0.56,0.047,0.78,0.141c0.219,0.094,0.305,0.226,0.419,0.396
	c0.116,0.17,0.144,0.335,0.167,0.499c0.023,0.163,0.035,0.005,0.035,0.535V23.634z M24.786,21.667h-3.001v2.059
	c0,0.325,0.024,0.534,0.071,0.627c0.048,0.094,0.222,0.141,0.354,0.141c0.166,0,0.404-0.062,0.46-0.187
	c0.056-0.125,0.083-0.366,0.083-0.723v-0.948h2.032v0.531c0,0.444-0.028,0.785-0.084,1.024c-0.056,0.238-0.187,0.492-0.392,0.763
	c-0.207,0.271-0.552,0.474-0.868,0.609c-0.315,0.135-0.712,0.203-1.188,0.203c-0.462,0-0.743-0.067-1.098-0.201
	c-0.354-0.134-0.691-0.316-0.888-0.549c-0.197-0.233-0.376-0.489-0.451-0.769c-0.076-0.279-0.114-0.687-0.114-1.222V20.68
	c0-0.628,0.084-0.62,0.255-0.983c0.169-0.362,0.552-0.64,0.938-0.833c0.387-0.194,0.705-0.291,1.207-0.291
	c0.613,0,1.203,0.116,1.603,0.35c0.399,0.233,0.679,0.542,0.839,0.926c0.161,0.385,0.241,0.673,0.241,1.37V21.667z"/>
<path style="fill:#000000;" d="M16.643,20.017c-0.047-0.115-0.391-0.171-0.528-0.171c-0.134,0-0.22,0.049-0.26,0.149
	c-0.04,0.099-0.06-0.155-0.06,0.246v3.35c0,0.386,0.022,0.634,0.067,0.742c0.046,0.108,0.136,0.162,0.269,0.162
	c0.137,0,0.479-0.056,0.521-0.167c0.041-0.112,0.062-0.381,0.062-0.807v-3.279C16.714,19.869,16.689,20.13,16.643,20.017z"/>
<path style="fill:#000000;" d="M22.205,19.72c-0.15,0-0.328,0.046-0.365,0.138c-0.036,0.092-0.055-0.038-0.055,0.367v0.399h0.809
	v-0.399c0-0.372-0.021-0.234-0.061-0.342C22.494,19.774,22.328,19.72,22.205,19.72z"/>
<g>
</g>
<g>
</g>
<g>
</g>
<g>
</g>
<g>
</g>
<g>
</g>
<g>
</g>
<g>
</g>
<g>
</g>
<g>
</g>
<g>
</g>
<g>
</g>
<g>
</g>
<g>
</g>
<g>
</g>
</svg>
